<svg xmlns="http://www.w3.org/2000/svg" viewBox="0 0 980 440"><rect width="980" height="100%" fill="#f8fafc"/><text x="12" y="25" font-size="18">B300 · 4096³ · TFLOP/s（越高越快）</text><text x="12" y="70" font-size="13">v03_multi_cta</text><rect x="225" y="55" width="4.0" height="22" fill="#0d9488" rx="3"/><text x="239.0" y="71" font-size="12">9</text><text x="12" y="104" font-size="13">v04_tma</text><rect x="225" y="89" width="122.5" height="22" fill="#0d9488" rx="3"/><text x="357.5" y="105" font-size="12">279</text><text x="12" y="138" font-size="13">v05_double_buffer</text><rect x="225" y="123" width="153.8" height="22" fill="#0d9488" rx="3"/><text x="388.8" y="139" font-size="12">350</text><text x="12" y="172" font-size="13">v06_persistent</text><rect x="225" y="157" width="182.8" height="22" fill="#0d9488" rx="3"/><text x="417.8" y="173" font-size="12">416</text><text x="12" y="206" font-size="13">v07_warp_specialized</text><rect x="225" y="191" width="404.6" height="22" fill="#0d9488" rx="3"/><text x="639.6" y="207" font-size="12">920</text><text x="12" y="240" font-size="13">v08_two_cta</text><rect x="225" y="225" width="426.2" height="22" fill="#0d9488" rx="3"/><text x="661.2" y="241" font-size="12">969</text><text x="12" y="274" font-size="13">v09_multi_consumer</text><rect x="225" y="259" width="496.6" height="22" fill="#0d9488" rx="3"/><text x="731.6" y="275" font-size="12">1130</text><text x="12" y="308" font-size="13">v09_tuned</text><rect x="225" y="293" width="581.1" height="22" fill="#0d9488" rx="3"/><text x="816.1" y="309" font-size="12">1322</text><text x="12" y="342" font-size="13">cuBLAS（调优版同轮）</text><rect x="225" y="327" width="650.0" height="22" fill="#64748b" rx="3"/><text x="885.0" y="343" font-size="12">1479</text><text x="12" y="376" font-size="13">cuBLASLt（调优版同轮）</text><rect x="225" y="361" width="601.9" height="22" fill="#64748b" rx="3"/><text x="836.9" y="377" font-size="12">1369</text></svg>