<svg xmlns="http://www.w3.org/2000/svg" viewBox="0 0 960 230" role="img" aria-label="02 · 沿 K 累加 数据路径"><defs><marker id="arr" markerWidth="5" markerHeight="5" refX="4" refY="2.5" orient="auto"><path d="M0 0L5 2.5L0 5" fill="none" stroke="#64748b"/></marker></defs><rect width="960" height="230" fill="#f8fafc" rx="12"/><text x="24" y="30" font-size="18" font-family="sans-serif">02 · 沿 K 累加</text><text x="24" y="55" font-size="13">128 threads: ordinary load/store</text><g id="node-0" data-tag="gmem"><rect x="24.0" y="80" width="137.66666666666666" height="76" rx="10" fill="#2563eb"/><text x="92.83333333333333" y="110" fill="white" text-anchor="middle" font-size="12">GMEM</text><text x="92.83333333333333" y="132" fill="white" text-anchor="middle" font-size="9"> A / B</text></g><path d="M162.66666666666666 118h12" stroke="#64748b" stroke-width="2" marker-end="url(#arr)"/><g id="node-1" data-tag="smem"><rect x="175.66666666666666" y="80" width="137.66666666666666" height="76" rx="10" fill="#0e9488"/><text x="244.5" y="110" fill="white" text-anchor="middle" font-size="12">SMEM</text><text x="244.5" y="132" fill="white" text-anchor="middle" font-size="9"> swizzled A / B</text></g><path d="M314.3333333333333 118h12" stroke="#64748b" stroke-width="2" marker-end="url(#arr)"/><g id="node-2" data-tag="mma"><rect x="327.3333333333333" y="80" width="137.66666666666666" height="76" rx="10" fill="#d97706"/><text x="396.16666666666663" y="110" fill="white" text-anchor="middle" font-size="12">tcgen05</text><text x="396.16666666666663" y="132" fill="white" text-anchor="middle" font-size="9"> MMA</text></g><path d="M466.0 118h12" stroke="#64748b" stroke-width="2" marker-end="url(#arr)"/><g id="node-3" data-tag="tmem"><rect x="479.0" y="80" width="137.66666666666666" height="76" rx="10" fill="#7c3aed"/><text x="547.8333333333334" y="110" fill="white" text-anchor="middle" font-size="12">TMEM</text><text x="547.8333333333334" y="132" fill="white" text-anchor="middle" font-size="9"> FP32 accumulator</text></g><path d="M617.6666666666666 118h12" stroke="#64748b" stroke-width="2" marker-end="url(#arr)"/><g id="node-4" data-tag="rmem"><rect x="630.6666666666666" y="80" width="137.66666666666666" height="76" rx="10" fill="#db2777"/><text x="699.5" y="110" fill="white" text-anchor="middle" font-size="12">REG</text><text x="699.5" y="132" fill="white" text-anchor="middle" font-size="9"> FP32 → FP16</text></g><path d="M769.3333333333333 118h12" stroke="#64748b" stroke-width="2" marker-end="url(#arr)"/><g id="node-5" data-tag="gmem"><rect x="782.3333333333333" y="80" width="137.66666666666666" height="76" rx="10" fill="#2563eb"/><text x="851.1666666666666" y="110" fill="white" text-anchor="middle" font-size="12">GMEM</text><text x="851.1666666666666" y="132" fill="white" text-anchor="middle" font-size="9"> D</text></g><text x="24" y="191" font-size="13">1 CTA / 1 SM</text><text x="24" y="214" font-size="12">Async instruction issue ≠ completion. Follow the barrier / wait before reuse.</text></svg>